<mxfile host="app.diagrams.net" modified="2021-05-20T12:31:54.470Z" agent="5.0 (Macintosh; Intel Mac OS X 10_15_7) AppleWebKit/537.36 (KHTML, like Gecko) Chrome/90.0.4430.85 Safari/537.36" etag="0hBmIO2PgNACr-JfbYAk" version="14.6.13" type="github" pages="5">
  <diagram id="cVjxZzLwL_wyQ9B9aP87" name="Page-1">
    <mxGraphModel dx="2493" dy="794" grid="1" gridSize="10" guides="1" tooltips="1" connect="1" arrows="1" fold="1" page="1" pageScale="1" pageWidth="827" pageHeight="1169" math="0" shadow="0">
      <root>
        <mxCell id="0" />
        <mxCell id="1" parent="0" />
        <mxCell id="SQP7NyI5JBbKgjoR2qbi-1" style="edgeStyle=orthogonalEdgeStyle;rounded=0;orthogonalLoop=1;jettySize=auto;html=1;" parent="1" source="SQP7NyI5JBbKgjoR2qbi-3" target="SQP7NyI5JBbKgjoR2qbi-5" edge="1">
          <mxGeometry relative="1" as="geometry" />
        </mxCell>
        <mxCell id="SQP7NyI5JBbKgjoR2qbi-2" value="" style="edgeStyle=orthogonalEdgeStyle;rounded=0;orthogonalLoop=1;jettySize=auto;html=1;" parent="1" source="SQP7NyI5JBbKgjoR2qbi-3" target="SQP7NyI5JBbKgjoR2qbi-15" edge="1">
          <mxGeometry relative="1" as="geometry" />
        </mxCell>
        <mxCell id="SQP7NyI5JBbKgjoR2qbi-3" value="payment-gateway" style="rounded=0;whiteSpace=wrap;html=1;fillColor=#ffe6cc;strokeColor=#d79b00;" parent="1" vertex="1">
          <mxGeometry x="220" y="150" width="120" height="60" as="geometry" />
        </mxCell>
        <mxCell id="SQP7NyI5JBbKgjoR2qbi-4" style="edgeStyle=orthogonalEdgeStyle;rounded=0;orthogonalLoop=1;jettySize=auto;html=1;" parent="1" source="SQP7NyI5JBbKgjoR2qbi-5" target="SQP7NyI5JBbKgjoR2qbi-7" edge="1">
          <mxGeometry relative="1" as="geometry" />
        </mxCell>
        <mxCell id="SQP7NyI5JBbKgjoR2qbi-5" value="payment-api" style="rounded=0;whiteSpace=wrap;html=1;" parent="1" vertex="1">
          <mxGeometry x="220" y="290" width="120" height="60" as="geometry" />
        </mxCell>
        <mxCell id="KKr9l_-_Govl5GcWk3-B-1" style="edgeStyle=orthogonalEdgeStyle;rounded=0;orthogonalLoop=1;jettySize=auto;html=1;" parent="1" source="SQP7NyI5JBbKgjoR2qbi-7" target="SQP7NyI5JBbKgjoR2qbi-12" edge="1">
          <mxGeometry relative="1" as="geometry" />
        </mxCell>
        <mxCell id="Kv-3SyQsXXNhAsMwlXSG-3" style="edgeStyle=orthogonalEdgeStyle;rounded=0;orthogonalLoop=1;jettySize=auto;html=1;" parent="1" source="SQP7NyI5JBbKgjoR2qbi-7" target="SQP7NyI5JBbKgjoR2qbi-31" edge="1">
          <mxGeometry relative="1" as="geometry">
            <Array as="points">
              <mxPoint x="410" y="480" />
              <mxPoint x="410" y="270" />
            </Array>
          </mxGeometry>
        </mxCell>
        <mxCell id="4WFugg_RP-lsVIjm_dSY-2" style="edgeStyle=orthogonalEdgeStyle;rounded=0;orthogonalLoop=1;jettySize=auto;html=1;" parent="1" source="SQP7NyI5JBbKgjoR2qbi-7" target="4WFugg_RP-lsVIjm_dSY-1" edge="1">
          <mxGeometry relative="1" as="geometry">
            <Array as="points">
              <mxPoint x="410" y="480" />
              <mxPoint x="410" y="405" />
            </Array>
          </mxGeometry>
        </mxCell>
        <mxCell id="4WFugg_RP-lsVIjm_dSY-3" style="edgeStyle=orthogonalEdgeStyle;rounded=0;orthogonalLoop=1;jettySize=auto;html=1;" parent="1" source="SQP7NyI5JBbKgjoR2qbi-7" target="C1WVds2zEhlto3zNk-7J-9" edge="1">
          <mxGeometry relative="1" as="geometry">
            <Array as="points">
              <mxPoint x="410" y="480" />
              <mxPoint x="410" y="510" />
            </Array>
          </mxGeometry>
        </mxCell>
        <mxCell id="4WFugg_RP-lsVIjm_dSY-4" style="edgeStyle=orthogonalEdgeStyle;rounded=0;orthogonalLoop=1;jettySize=auto;html=1;" parent="1" source="SQP7NyI5JBbKgjoR2qbi-7" target="Kv-3SyQsXXNhAsMwlXSG-1" edge="1">
          <mxGeometry relative="1" as="geometry">
            <Array as="points">
              <mxPoint x="410" y="480" />
              <mxPoint x="410" y="640" />
            </Array>
          </mxGeometry>
        </mxCell>
        <mxCell id="SQP7NyI5JBbKgjoR2qbi-7" value="payment-core" style="rounded=0;whiteSpace=wrap;html=1;" parent="1" vertex="1">
          <mxGeometry x="220" y="450" width="120" height="60" as="geometry" />
        </mxCell>
        <mxCell id="SQP7NyI5JBbKgjoR2qbi-11" style="edgeStyle=orthogonalEdgeStyle;rounded=0;orthogonalLoop=1;jettySize=auto;html=1;" parent="1" source="SQP7NyI5JBbKgjoR2qbi-12" target="SQP7NyI5JBbKgjoR2qbi-14" edge="1">
          <mxGeometry relative="1" as="geometry" />
        </mxCell>
        <mxCell id="SQP7NyI5JBbKgjoR2qbi-12" value="adaptor-taishin" style="rounded=0;whiteSpace=wrap;html=1;fillColor=#ffe6cc;strokeColor=#d79b00;" parent="1" vertex="1">
          <mxGeometry x="220" y="630" width="120" height="60" as="geometry" />
        </mxCell>
        <mxCell id="SQP7NyI5JBbKgjoR2qbi-13" style="edgeStyle=orthogonalEdgeStyle;rounded=0;orthogonalLoop=1;jettySize=auto;html=1;" parent="1" source="SQP7NyI5JBbKgjoR2qbi-12" target="SQP7NyI5JBbKgjoR2qbi-15" edge="1">
          <mxGeometry relative="1" as="geometry" />
        </mxCell>
        <mxCell id="SQP7NyI5JBbKgjoR2qbi-14" value="taishin" style="rounded=0;whiteSpace=wrap;html=1;fillColor=#bac8d3;strokeColor=#23445d;" parent="1" vertex="1">
          <mxGeometry x="220" y="760" width="120" height="60" as="geometry" />
        </mxCell>
        <mxCell id="SQP7NyI5JBbKgjoR2qbi-15" value="token-service" style="rounded=0;whiteSpace=wrap;html=1;fillColor=#ffe6cc;strokeColor=#d79b00;" parent="1" vertex="1">
          <mxGeometry x="20" y="390" width="120" height="60" as="geometry" />
        </mxCell>
        <mxCell id="SQP7NyI5JBbKgjoR2qbi-26" value="PCI" style="rounded=0;whiteSpace=wrap;html=1;strokeColor=#b46504;fillColor=#fad7ac;" parent="1" vertex="1">
          <mxGeometry x="-110" y="160" width="70" height="30" as="geometry" />
        </mxCell>
        <mxCell id="SQP7NyI5JBbKgjoR2qbi-27" value="Non-PCI" style="rounded=0;whiteSpace=wrap;html=1;" parent="1" vertex="1">
          <mxGeometry x="-110" y="220" width="70" height="30" as="geometry" />
        </mxCell>
        <mxCell id="SQP7NyI5JBbKgjoR2qbi-28" value="Processor" style="rounded=0;whiteSpace=wrap;html=1;fillColor=#bac8d3;strokeColor=#23445d;" parent="1" vertex="1">
          <mxGeometry x="-110" y="280" width="70" height="30" as="geometry" />
        </mxCell>
        <mxCell id="SQP7NyI5JBbKgjoR2qbi-31" value="risk" style="rounded=0;whiteSpace=wrap;html=1;" parent="1" vertex="1">
          <mxGeometry x="450" y="240" width="120" height="60" as="geometry" />
        </mxCell>
        <mxCell id="Kv-3SyQsXXNhAsMwlXSG-1" value="Clearing" style="rounded=0;whiteSpace=wrap;html=1;" parent="1" vertex="1">
          <mxGeometry x="450" y="610" width="120" height="60" as="geometry" />
        </mxCell>
        <mxCell id="C1WVds2zEhlto3zNk-7J-1" value="支付接口&lt;br&gt;支付请求字段校验&lt;br&gt;Versioning&lt;br&gt;swagger 文档" style="text;html=1;strokeColor=none;fillColor=none;align=center;verticalAlign=middle;whiteSpace=wrap;rounded=0;" parent="1" vertex="1">
          <mxGeometry x="750" y="275" width="140" height="90" as="geometry" />
        </mxCell>
        <mxCell id="C1WVds2zEhlto3zNk-7J-4" value="渠道请求与响应解析&lt;br&gt;ErrorCode Mapping&lt;br&gt;web hook回调&lt;br&gt;渠道文件解析" style="text;html=1;strokeColor=none;fillColor=none;align=center;verticalAlign=middle;whiteSpace=wrap;rounded=0;" parent="1" vertex="1">
          <mxGeometry x="750" y="615" width="140" height="90" as="geometry" />
        </mxCell>
        <mxCell id="C1WVds2zEhlto3zNk-7J-8" value="支付状态&lt;br&gt;支付路由&lt;br&gt;支付控制&lt;br&gt;风控调用&lt;br&gt;清算数据源&lt;br&gt;Merchant Event数据源" style="text;html=1;strokeColor=none;fillColor=none;align=center;verticalAlign=middle;whiteSpace=wrap;rounded=0;" parent="1" vertex="1">
          <mxGeometry x="750" y="435" width="140" height="90" as="geometry" />
        </mxCell>
        <mxCell id="C1WVds2zEhlto3zNk-7J-9" value="merchant event" style="rounded=0;whiteSpace=wrap;html=1;" parent="1" vertex="1">
          <mxGeometry x="450" y="480" width="120" height="60" as="geometry" />
        </mxCell>
        <mxCell id="4WFugg_RP-lsVIjm_dSY-1" value="Merchant Acount" style="rounded=0;whiteSpace=wrap;html=1;" parent="1" vertex="1">
          <mxGeometry x="450" y="375" width="120" height="60" as="geometry" />
        </mxCell>
      </root>
    </mxGraphModel>
  </diagram>
  <diagram id="jRmJMZqvgI9TjXQ9TuZf" name="Page-2">
    <mxGraphModel dx="1138" dy="1234" grid="1" gridSize="10" guides="1" tooltips="1" connect="1" arrows="1" fold="1" page="0" pageScale="1" pageWidth="827" pageHeight="1169" math="0" shadow="0">
      <root>
        <mxCell id="8s_jQDS1ty3zFgQ5Uoqw-0" />
        <mxCell id="8s_jQDS1ty3zFgQ5Uoqw-1" parent="8s_jQDS1ty3zFgQ5Uoqw-0" />
        <mxCell id="AE8oVQk_Y-hZ0B_NTPro-13" value="" style="edgeStyle=orthogonalEdgeStyle;rounded=0;orthogonalLoop=1;jettySize=auto;html=1;" parent="8s_jQDS1ty3zFgQ5Uoqw-1" source="AE8oVQk_Y-hZ0B_NTPro-0" target="AE8oVQk_Y-hZ0B_NTPro-12" edge="1">
          <mxGeometry relative="1" as="geometry">
            <Array as="points">
              <mxPoint x="910" y="610" />
            </Array>
          </mxGeometry>
        </mxCell>
        <mxCell id="AE8oVQk_Y-hZ0B_NTPro-14" value="confirm" style="edgeLabel;html=1;align=center;verticalAlign=middle;resizable=0;points=[];" parent="AE8oVQk_Y-hZ0B_NTPro-13" vertex="1" connectable="0">
          <mxGeometry x="-0.05" y="1" relative="1" as="geometry">
            <mxPoint x="-1" y="-31" as="offset" />
          </mxGeometry>
        </mxCell>
        <mxCell id="AE8oVQk_Y-hZ0B_NTPro-33" style="edgeStyle=orthogonalEdgeStyle;rounded=0;orthogonalLoop=1;jettySize=auto;html=1;" parent="8s_jQDS1ty3zFgQ5Uoqw-1" source="AE8oVQk_Y-hZ0B_NTPro-0" target="AE8oVQk_Y-hZ0B_NTPro-1" edge="1">
          <mxGeometry relative="1" as="geometry" />
        </mxCell>
        <mxCell id="AE8oVQk_Y-hZ0B_NTPro-48" value="Confirm/Cancel" style="edgeLabel;html=1;align=center;verticalAlign=middle;resizable=0;points=[];" parent="AE8oVQk_Y-hZ0B_NTPro-33" vertex="1" connectable="0">
          <mxGeometry x="-0.1167" y="-1" relative="1" as="geometry">
            <mxPoint as="offset" />
          </mxGeometry>
        </mxCell>
        <mxCell id="AE8oVQk_Y-hZ0B_NTPro-43" style="edgeStyle=orthogonalEdgeStyle;rounded=0;orthogonalLoop=1;jettySize=auto;html=1;" parent="8s_jQDS1ty3zFgQ5Uoqw-1" source="AE8oVQk_Y-hZ0B_NTPro-0" target="AE8oVQk_Y-hZ0B_NTPro-44" edge="1">
          <mxGeometry relative="1" as="geometry">
            <mxPoint x="1130" y="650" as="targetPoint" />
            <Array as="points">
              <mxPoint x="910" y="220" />
              <mxPoint x="910" y="220" />
            </Array>
          </mxGeometry>
        </mxCell>
        <mxCell id="AE8oVQk_Y-hZ0B_NTPro-47" value="Refund" style="edgeLabel;html=1;align=center;verticalAlign=middle;resizable=0;points=[];" parent="AE8oVQk_Y-hZ0B_NTPro-43" vertex="1" connectable="0">
          <mxGeometry x="0.0985" y="1" relative="1" as="geometry">
            <mxPoint y="73" as="offset" />
          </mxGeometry>
        </mxCell>
        <mxCell id="YwNhor-JZhS5qyKoO-f4-1" style="edgeStyle=orthogonalEdgeStyle;rounded=0;orthogonalLoop=1;jettySize=auto;html=1;" parent="8s_jQDS1ty3zFgQ5Uoqw-1" source="AE8oVQk_Y-hZ0B_NTPro-0" target="YwNhor-JZhS5qyKoO-f4-0" edge="1">
          <mxGeometry relative="1" as="geometry">
            <Array as="points">
              <mxPoint x="910" y="-140" />
            </Array>
          </mxGeometry>
        </mxCell>
        <mxCell id="AE8oVQk_Y-hZ0B_NTPro-0" value="payment-order" style="rounded=0;whiteSpace=wrap;html=1;fillColor=#ffe6cc;strokeColor=#d79b00;" parent="8s_jQDS1ty3zFgQ5Uoqw-1" vertex="1">
          <mxGeometry x="850" y="250" width="120" height="60" as="geometry" />
        </mxCell>
        <mxCell id="AE8oVQk_Y-hZ0B_NTPro-8" value="" style="edgeStyle=orthogonalEdgeStyle;rounded=0;orthogonalLoop=1;jettySize=auto;html=1;" parent="8s_jQDS1ty3zFgQ5Uoqw-1" source="AE8oVQk_Y-hZ0B_NTPro-1" target="AE8oVQk_Y-hZ0B_NTPro-7" edge="1">
          <mxGeometry relative="1" as="geometry">
            <Array as="points">
              <mxPoint x="1150" y="80" />
            </Array>
          </mxGeometry>
        </mxCell>
        <mxCell id="AE8oVQk_Y-hZ0B_NTPro-26" value="Auth" style="edgeLabel;html=1;align=center;verticalAlign=middle;resizable=0;points=[];" parent="AE8oVQk_Y-hZ0B_NTPro-8" vertex="1" connectable="0">
          <mxGeometry x="0.3852" relative="1" as="geometry">
            <mxPoint x="18" as="offset" />
          </mxGeometry>
        </mxCell>
        <mxCell id="AE8oVQk_Y-hZ0B_NTPro-10" value="" style="edgeStyle=orthogonalEdgeStyle;rounded=0;orthogonalLoop=1;jettySize=auto;html=1;" parent="8s_jQDS1ty3zFgQ5Uoqw-1" source="AE8oVQk_Y-hZ0B_NTPro-1" target="AE8oVQk_Y-hZ0B_NTPro-9" edge="1">
          <mxGeometry relative="1" as="geometry">
            <Array as="points">
              <mxPoint x="1150" y="180" />
            </Array>
          </mxGeometry>
        </mxCell>
        <mxCell id="AE8oVQk_Y-hZ0B_NTPro-27" value="Auth" style="edgeLabel;html=1;align=center;verticalAlign=middle;resizable=0;points=[];" parent="AE8oVQk_Y-hZ0B_NTPro-10" vertex="1" connectable="0">
          <mxGeometry x="-0.1" y="2" relative="1" as="geometry">
            <mxPoint x="57" y="2" as="offset" />
          </mxGeometry>
        </mxCell>
        <mxCell id="AE8oVQk_Y-hZ0B_NTPro-31" style="edgeStyle=orthogonalEdgeStyle;rounded=0;orthogonalLoop=1;jettySize=auto;html=1;" parent="8s_jQDS1ty3zFgQ5Uoqw-1" source="AE8oVQk_Y-hZ0B_NTPro-1" target="AE8oVQk_Y-hZ0B_NTPro-28" edge="1">
          <mxGeometry relative="1" as="geometry">
            <Array as="points">
              <mxPoint x="1260" y="280" />
              <mxPoint x="1260" y="280" />
            </Array>
          </mxGeometry>
        </mxCell>
        <mxCell id="AE8oVQk_Y-hZ0B_NTPro-32" value="Capture" style="edgeLabel;html=1;align=center;verticalAlign=middle;resizable=0;points=[];" parent="AE8oVQk_Y-hZ0B_NTPro-31" vertex="1" connectable="0">
          <mxGeometry x="0.408" y="3" relative="1" as="geometry">
            <mxPoint x="-24" y="3" as="offset" />
          </mxGeometry>
        </mxCell>
        <mxCell id="AE8oVQk_Y-hZ0B_NTPro-40" style="edgeStyle=orthogonalEdgeStyle;rounded=0;orthogonalLoop=1;jettySize=auto;html=1;" parent="8s_jQDS1ty3zFgQ5Uoqw-1" source="AE8oVQk_Y-hZ0B_NTPro-1" target="AE8oVQk_Y-hZ0B_NTPro-39" edge="1">
          <mxGeometry relative="1" as="geometry">
            <Array as="points">
              <mxPoint x="1150" y="490" />
            </Array>
          </mxGeometry>
        </mxCell>
        <mxCell id="AE8oVQk_Y-hZ0B_NTPro-41" value="Cancel" style="edgeLabel;html=1;align=center;verticalAlign=middle;resizable=0;points=[];" parent="AE8oVQk_Y-hZ0B_NTPro-40" vertex="1" connectable="0">
          <mxGeometry x="0.5867" y="-1" relative="1" as="geometry">
            <mxPoint x="-16" y="-1" as="offset" />
          </mxGeometry>
        </mxCell>
        <mxCell id="AE8oVQk_Y-hZ0B_NTPro-1" value="payment-attempt" style="rounded=0;whiteSpace=wrap;html=1;fillColor=#dae8fc;strokeColor=#6c8ebf;" parent="8s_jQDS1ty3zFgQ5Uoqw-1" vertex="1">
          <mxGeometry x="1090" y="250" width="120" height="60" as="geometry" />
        </mxCell>
        <mxCell id="AE8oVQk_Y-hZ0B_NTPro-7" value="payment-direcitve" style="rounded=0;whiteSpace=wrap;html=1;" parent="8s_jQDS1ty3zFgQ5Uoqw-1" vertex="1">
          <mxGeometry x="1330" y="50" width="120" height="60" as="geometry" />
        </mxCell>
        <mxCell id="AE8oVQk_Y-hZ0B_NTPro-35" value="例" style="edgeStyle=orthogonalEdgeStyle;rounded=0;orthogonalLoop=1;jettySize=auto;html=1;" parent="8s_jQDS1ty3zFgQ5Uoqw-1" source="AE8oVQk_Y-hZ0B_NTPro-9" target="AE8oVQk_Y-hZ0B_NTPro-34" edge="1">
          <mxGeometry relative="1" as="geometry" />
        </mxCell>
        <mxCell id="AE8oVQk_Y-hZ0B_NTPro-9" value="payment-direcitve" style="rounded=0;whiteSpace=wrap;html=1;" parent="8s_jQDS1ty3zFgQ5Uoqw-1" vertex="1">
          <mxGeometry x="1330" y="150" width="120" height="60" as="geometry" />
        </mxCell>
        <mxCell id="AE8oVQk_Y-hZ0B_NTPro-25" style="edgeStyle=orthogonalEdgeStyle;rounded=0;orthogonalLoop=1;jettySize=auto;html=1;" parent="8s_jQDS1ty3zFgQ5Uoqw-1" source="AE8oVQk_Y-hZ0B_NTPro-12" target="AE8oVQk_Y-hZ0B_NTPro-24" edge="1">
          <mxGeometry relative="1" as="geometry" />
        </mxCell>
        <mxCell id="qpmsqprhgQ6LBomJ-GZK-1" value="" style="edgeStyle=orthogonalEdgeStyle;rounded=0;orthogonalLoop=1;jettySize=auto;html=1;" parent="8s_jQDS1ty3zFgQ5Uoqw-1" source="AE8oVQk_Y-hZ0B_NTPro-12" target="qpmsqprhgQ6LBomJ-GZK-0" edge="1">
          <mxGeometry relative="1" as="geometry" />
        </mxCell>
        <mxCell id="AE8oVQk_Y-hZ0B_NTPro-12" value="payment-attempt" style="rounded=0;whiteSpace=wrap;html=1;fillColor=#dae8fc;strokeColor=#6c8ebf;" parent="8s_jQDS1ty3zFgQ5Uoqw-1" vertex="1">
          <mxGeometry x="1090" y="580" width="120" height="60" as="geometry" />
        </mxCell>
        <mxCell id="AE8oVQk_Y-hZ0B_NTPro-24" value="&lt;b&gt;例：&lt;/b&gt;&lt;br&gt;第一次支付失败，用户换卡支付" style="text;html=1;strokeColor=none;fillColor=none;align=center;verticalAlign=middle;whiteSpace=wrap;rounded=0;" parent="8s_jQDS1ty3zFgQ5Uoqw-1" vertex="1">
          <mxGeometry x="1340" y="585" width="100" height="50" as="geometry" />
        </mxCell>
        <mxCell id="AE8oVQk_Y-hZ0B_NTPro-28" value="payment-direcitve" style="rounded=0;whiteSpace=wrap;html=1;" parent="8s_jQDS1ty3zFgQ5Uoqw-1" vertex="1">
          <mxGeometry x="1330" y="250" width="120" height="60" as="geometry" />
        </mxCell>
        <mxCell id="AE8oVQk_Y-hZ0B_NTPro-34" value="渠道不可用，&lt;br&gt;core进行换渠道支付" style="text;html=1;strokeColor=none;fillColor=none;align=center;verticalAlign=middle;whiteSpace=wrap;rounded=0;" parent="8s_jQDS1ty3zFgQ5Uoqw-1" vertex="1">
          <mxGeometry x="1580" y="152.5" width="100" height="55" as="geometry" />
        </mxCell>
        <mxCell id="AE8oVQk_Y-hZ0B_NTPro-36" value="payment-direcitve" style="rounded=0;whiteSpace=wrap;html=1;" parent="8s_jQDS1ty3zFgQ5Uoqw-1" vertex="1">
          <mxGeometry x="1330" y="350" width="120" height="60" as="geometry" />
        </mxCell>
        <mxCell id="AE8oVQk_Y-hZ0B_NTPro-37" style="edgeStyle=orthogonalEdgeStyle;rounded=0;orthogonalLoop=1;jettySize=auto;html=1;" parent="8s_jQDS1ty3zFgQ5Uoqw-1" source="AE8oVQk_Y-hZ0B_NTPro-1" target="AE8oVQk_Y-hZ0B_NTPro-36" edge="1">
          <mxGeometry relative="1" as="geometry">
            <mxPoint x="1170" y="300" as="sourcePoint" />
            <mxPoint x="1340" y="380" as="targetPoint" />
            <Array as="points">
              <mxPoint x="1150" y="390" />
            </Array>
          </mxGeometry>
        </mxCell>
        <mxCell id="AE8oVQk_Y-hZ0B_NTPro-38" value="Partial Capture" style="edgeLabel;html=1;align=center;verticalAlign=middle;resizable=0;points=[];" parent="AE8oVQk_Y-hZ0B_NTPro-37" vertex="1" connectable="0">
          <mxGeometry x="0.408" y="3" relative="1" as="geometry">
            <mxPoint x="-3" y="3" as="offset" />
          </mxGeometry>
        </mxCell>
        <mxCell id="AE8oVQk_Y-hZ0B_NTPro-39" value="payment-direcitve" style="rounded=0;whiteSpace=wrap;html=1;" parent="8s_jQDS1ty3zFgQ5Uoqw-1" vertex="1">
          <mxGeometry x="1330" y="460" width="120" height="60" as="geometry" />
        </mxCell>
        <mxCell id="AE8oVQk_Y-hZ0B_NTPro-46" value="" style="edgeStyle=orthogonalEdgeStyle;rounded=0;orthogonalLoop=1;jettySize=auto;html=1;" parent="8s_jQDS1ty3zFgQ5Uoqw-1" source="AE8oVQk_Y-hZ0B_NTPro-44" target="AE8oVQk_Y-hZ0B_NTPro-45" edge="1">
          <mxGeometry relative="1" as="geometry">
            <Array as="points">
              <mxPoint x="1190" y="-30" />
              <mxPoint x="1190" y="-30" />
            </Array>
          </mxGeometry>
        </mxCell>
        <mxCell id="AE8oVQk_Y-hZ0B_NTPro-44" value="refund" style="rounded=0;whiteSpace=wrap;html=1;fillColor=#fff2cc;strokeColor=#d6b656;" parent="8s_jQDS1ty3zFgQ5Uoqw-1" vertex="1">
          <mxGeometry x="1090" y="-60" width="120" height="60" as="geometry" />
        </mxCell>
        <mxCell id="AE8oVQk_Y-hZ0B_NTPro-45" value="payment-direcitve" style="rounded=0;whiteSpace=wrap;html=1;" parent="8s_jQDS1ty3zFgQ5Uoqw-1" vertex="1">
          <mxGeometry x="1330" y="-60" width="120" height="60" as="geometry" />
        </mxCell>
        <mxCell id="qpmsqprhgQ6LBomJ-GZK-0" value="payment-instrument" style="rounded=0;whiteSpace=wrap;html=1;fillColor=#e1d5e7;strokeColor=#9673a6;" parent="8s_jQDS1ty3zFgQ5Uoqw-1" vertex="1">
          <mxGeometry x="1090" y="700" width="120" height="60" as="geometry" />
        </mxCell>
        <mxCell id="qpmsqprhgQ6LBomJ-GZK-3" style="edgeStyle=orthogonalEdgeStyle;rounded=0;orthogonalLoop=1;jettySize=auto;html=1;" parent="8s_jQDS1ty3zFgQ5Uoqw-1" source="qpmsqprhgQ6LBomJ-GZK-2" target="qpmsqprhgQ6LBomJ-GZK-0" edge="1">
          <mxGeometry relative="1" as="geometry" />
        </mxCell>
        <mxCell id="qpmsqprhgQ6LBomJ-GZK-5" style="edgeStyle=orthogonalEdgeStyle;rounded=0;orthogonalLoop=1;jettySize=auto;html=1;" parent="8s_jQDS1ty3zFgQ5Uoqw-1" source="qpmsqprhgQ6LBomJ-GZK-2" target="qpmsqprhgQ6LBomJ-GZK-4" edge="1">
          <mxGeometry relative="1" as="geometry">
            <Array as="points">
              <mxPoint x="910" y="840" />
            </Array>
          </mxGeometry>
        </mxCell>
        <mxCell id="qpmsqprhgQ6LBomJ-GZK-6" style="edgeStyle=orthogonalEdgeStyle;rounded=0;orthogonalLoop=1;jettySize=auto;html=1;" parent="8s_jQDS1ty3zFgQ5Uoqw-1" source="qpmsqprhgQ6LBomJ-GZK-2" target="AE8oVQk_Y-hZ0B_NTPro-0" edge="1">
          <mxGeometry relative="1" as="geometry">
            <Array as="points">
              <mxPoint x="800" y="730" />
              <mxPoint x="800" y="280" />
            </Array>
          </mxGeometry>
        </mxCell>
        <mxCell id="qpmsqprhgQ6LBomJ-GZK-2" value="Customer" style="rounded=0;whiteSpace=wrap;html=1;fillColor=#e1d5e7;strokeColor=#9673a6;" parent="8s_jQDS1ty3zFgQ5Uoqw-1" vertex="1">
          <mxGeometry x="850" y="700" width="120" height="60" as="geometry" />
        </mxCell>
        <mxCell id="qpmsqprhgQ6LBomJ-GZK-4" value="payment-instrument" style="rounded=0;whiteSpace=wrap;html=1;fillColor=#e1d5e7;strokeColor=#9673a6;" parent="8s_jQDS1ty3zFgQ5Uoqw-1" vertex="1">
          <mxGeometry x="1090" y="810" width="120" height="60" as="geometry" />
        </mxCell>
        <mxCell id="YwNhor-JZhS5qyKoO-f4-0" value="refund" style="rounded=0;whiteSpace=wrap;html=1;fillColor=#fff2cc;strokeColor=#d6b656;" parent="8s_jQDS1ty3zFgQ5Uoqw-1" vertex="1">
          <mxGeometry x="1090" y="-170" width="120" height="60" as="geometry" />
        </mxCell>
      </root>
    </mxGraphModel>
  </diagram>
  <diagram id="HEi5bVT4WN4cwsd7brou" name="Page-3">
    <mxGraphModel dx="2365" dy="2003" grid="1" gridSize="10" guides="1" tooltips="1" connect="1" arrows="1" fold="1" page="1" pageScale="1" pageWidth="827" pageHeight="1169" math="0" shadow="0">
      <root>
        <mxCell id="7MgugsnWemO8ULKNvG8d-0" />
        <mxCell id="7MgugsnWemO8ULKNvG8d-1" parent="7MgugsnWemO8ULKNvG8d-0" />
        <mxCell id="7MgugsnWemO8ULKNvG8d-2" value="&lt;meta charset=&quot;utf-8&quot;&gt;&lt;span&gt;&lt;/span&gt;&lt;img src=&quot;https://imgr.whimsical.com/object/LX5q5JMkdKGhmwTrwdxUGQ&quot;&gt;" style="text;whiteSpace=wrap;html=1;" parent="7MgugsnWemO8ULKNvG8d-1" vertex="1">
          <mxGeometry x="-470" y="-10" width="30" height="30" as="geometry" />
        </mxCell>
      </root>
    </mxGraphModel>
  </diagram>
  <diagram id="dn4QuauGyX0odfSBc7v6" name="Page-4">
    <mxGraphModel dx="3666" dy="1194" grid="1" gridSize="10" guides="1" tooltips="1" connect="1" arrows="1" fold="1" page="0" pageScale="1" pageWidth="827" pageHeight="1169" math="0" shadow="0">
      <root>
        <mxCell id="EeVNyMkZ5Xv2RsEspG1U-0" />
        <mxCell id="EeVNyMkZ5Xv2RsEspG1U-1" parent="EeVNyMkZ5Xv2RsEspG1U-0" />
        <mxCell id="a4Ap-mkWmLGF6kZdztxk-83" value="" style="endArrow=classic;html=1;" parent="EeVNyMkZ5Xv2RsEspG1U-1" source="a4Ap-mkWmLGF6kZdztxk-1" target="a4Ap-mkWmLGF6kZdztxk-298" edge="1">
          <mxGeometry width="50" height="50" relative="1" as="geometry">
            <mxPoint x="-1550" y="121.9" as="sourcePoint" />
            <mxPoint x="-1450" y="121.9" as="targetPoint" />
            <Array as="points">
              <mxPoint x="-1560" y="80" />
            </Array>
          </mxGeometry>
        </mxCell>
        <mxCell id="a4Ap-mkWmLGF6kZdztxk-90" value="下单支付" style="edgeLabel;html=1;align=center;verticalAlign=middle;resizable=0;points=[];" parent="a4Ap-mkWmLGF6kZdztxk-83" vertex="1" connectable="0">
          <mxGeometry x="-0.4774" y="2" relative="1" as="geometry">
            <mxPoint x="13.570000000000007" y="2" as="offset" />
          </mxGeometry>
        </mxCell>
        <mxCell id="iaEq5DibLvAJ-MCt7vLl-18" value="API" style="shape=umlLifeline;perimeter=lifelinePerimeter;whiteSpace=wrap;html=1;container=1;collapsible=0;recursiveResize=0;outlineConnect=0;fillColor=#FFFFFF;" parent="EeVNyMkZ5Xv2RsEspG1U-1" vertex="1">
          <mxGeometry x="-1240" y="-160" width="120" height="760" as="geometry" />
        </mxCell>
        <mxCell id="iaEq5DibLvAJ-MCt7vLl-19" value="" style="html=1;points=[];perimeter=orthogonalPerimeter;fillColor=#B3B3B3;" parent="iaEq5DibLvAJ-MCt7vLl-18" vertex="1">
          <mxGeometry x="55" y="80" width="10" height="640" as="geometry" />
        </mxCell>
        <mxCell id="iaEq5DibLvAJ-MCt7vLl-20" value="Token Service" style="shape=umlLifeline;perimeter=lifelinePerimeter;whiteSpace=wrap;html=1;container=1;collapsible=0;recursiveResize=0;outlineConnect=0;fillColor=#FFB570;" parent="EeVNyMkZ5Xv2RsEspG1U-1" vertex="1">
          <mxGeometry x="-1560" y="-160" width="120" height="760" as="geometry" />
        </mxCell>
        <mxCell id="iaEq5DibLvAJ-MCt7vLl-21" value="" style="html=1;points=[];perimeter=orthogonalPerimeter;fillColor=#B3B3B3;" parent="iaEq5DibLvAJ-MCt7vLl-20" vertex="1">
          <mxGeometry x="55" y="80" width="10" height="640" as="geometry" />
        </mxCell>
        <mxCell id="a4Ap-mkWmLGF6kZdztxk-84" value="" style="group" parent="iaEq5DibLvAJ-MCt7vLl-20" vertex="1" connectable="0">
          <mxGeometry x="90" y="220" width="100" height="44.79999999999998" as="geometry" />
        </mxCell>
        <mxCell id="a4Ap-mkWmLGF6kZdztxk-82" value="Proxy" style="pointerEvents=1;shadow=0;dashed=0;html=1;strokeColor=none;fillColor=#4495D1;labelPosition=center;verticalLabelPosition=bottom;verticalAlign=top;align=center;outlineConnect=0;shape=mxgraph.veeam.2d.proxy;" parent="a4Ap-mkWmLGF6kZdztxk-84" vertex="1">
          <mxGeometry x="30" width="40" height="40" as="geometry" />
        </mxCell>
        <mxCell id="a4Ap-mkWmLGF6kZdztxk-0" value="PCI Gateway" style="shape=umlLifeline;perimeter=lifelinePerimeter;whiteSpace=wrap;html=1;container=1;collapsible=0;recursiveResize=0;outlineConnect=0;fillColor=#FFB570;" parent="EeVNyMkZ5Xv2RsEspG1U-1" vertex="1">
          <mxGeometry x="-1720" y="-160" width="120" height="760" as="geometry" />
        </mxCell>
        <mxCell id="a4Ap-mkWmLGF6kZdztxk-1" value="" style="html=1;points=[];perimeter=orthogonalPerimeter;fillColor=#B3B3B3;" parent="a4Ap-mkWmLGF6kZdztxk-0" vertex="1">
          <mxGeometry x="55" y="80" width="10" height="640" as="geometry" />
        </mxCell>
        <mxCell id="a4Ap-mkWmLGF6kZdztxk-2" value="Shopline" style="shape=umlLifeline;perimeter=lifelinePerimeter;whiteSpace=wrap;html=1;container=1;collapsible=0;recursiveResize=0;outlineConnect=0;fillColor=#CCCCCC;" parent="EeVNyMkZ5Xv2RsEspG1U-1" vertex="1">
          <mxGeometry x="-1880" y="-160" width="120" height="760" as="geometry" />
        </mxCell>
        <mxCell id="a4Ap-mkWmLGF6kZdztxk-3" value="" style="html=1;points=[];perimeter=orthogonalPerimeter;fillColor=#B3B3B3;" parent="a4Ap-mkWmLGF6kZdztxk-2" vertex="1">
          <mxGeometry x="55" y="80" width="10" height="640" as="geometry" />
        </mxCell>
        <mxCell id="a4Ap-mkWmLGF6kZdztxk-4" value="Core" style="shape=umlLifeline;perimeter=lifelinePerimeter;whiteSpace=wrap;html=1;container=1;collapsible=0;recursiveResize=0;outlineConnect=0;fillColor=#FFFFFF;" parent="EeVNyMkZ5Xv2RsEspG1U-1" vertex="1">
          <mxGeometry x="-1080" y="-160" width="120" height="760" as="geometry" />
        </mxCell>
        <mxCell id="a4Ap-mkWmLGF6kZdztxk-5" value="" style="html=1;points=[];perimeter=orthogonalPerimeter;fillColor=#B3B3B3;" parent="a4Ap-mkWmLGF6kZdztxk-4" vertex="1">
          <mxGeometry x="55" y="80" width="10" height="640" as="geometry" />
        </mxCell>
        <mxCell id="a4Ap-mkWmLGF6kZdztxk-6" value="PCI Adaptor Taishin" style="shape=umlLifeline;perimeter=lifelinePerimeter;whiteSpace=wrap;html=1;container=1;collapsible=0;recursiveResize=0;outlineConnect=0;fillColor=#FFB570;" parent="EeVNyMkZ5Xv2RsEspG1U-1" vertex="1">
          <mxGeometry x="-920" y="-160" width="120" height="760" as="geometry" />
        </mxCell>
        <mxCell id="a4Ap-mkWmLGF6kZdztxk-7" value="" style="html=1;points=[];perimeter=orthogonalPerimeter;fillColor=#B3B3B3;" parent="a4Ap-mkWmLGF6kZdztxk-6" vertex="1">
          <mxGeometry x="55" y="80" width="10" height="640" as="geometry" />
        </mxCell>
        <mxCell id="a4Ap-mkWmLGF6kZdztxk-8" value="Taishin" style="shape=umlLifeline;perimeter=lifelinePerimeter;whiteSpace=wrap;html=1;container=1;collapsible=0;recursiveResize=0;outlineConnect=0;fillColor=#CCCCCC;" parent="EeVNyMkZ5Xv2RsEspG1U-1" vertex="1">
          <mxGeometry x="-760" y="-160" width="120" height="760" as="geometry" />
        </mxCell>
        <mxCell id="a4Ap-mkWmLGF6kZdztxk-9" value="" style="html=1;points=[];perimeter=orthogonalPerimeter;fillColor=#B3B3B3;" parent="a4Ap-mkWmLGF6kZdztxk-8" vertex="1">
          <mxGeometry x="55" y="80" width="10" height="640" as="geometry" />
        </mxCell>
        <mxCell id="a4Ap-mkWmLGF6kZdztxk-10" style="edgeStyle=orthogonalEdgeStyle;rounded=0;orthogonalLoop=1;jettySize=auto;html=1;" parent="EeVNyMkZ5Xv2RsEspG1U-1" source="a4Ap-mkWmLGF6kZdztxk-3" target="a4Ap-mkWmLGF6kZdztxk-1" edge="1">
          <mxGeometry relative="1" as="geometry">
            <Array as="points">
              <mxPoint x="-1770" y="-40" />
              <mxPoint x="-1770" y="-40" />
            </Array>
          </mxGeometry>
        </mxCell>
        <mxCell id="a4Ap-mkWmLGF6kZdztxk-16" value="下单支付" style="edgeLabel;html=1;align=center;verticalAlign=middle;resizable=0;points=[];" parent="a4Ap-mkWmLGF6kZdztxk-10" vertex="1" connectable="0">
          <mxGeometry x="0.0533" y="1" relative="1" as="geometry">
            <mxPoint as="offset" />
          </mxGeometry>
        </mxCell>
        <mxCell id="a4Ap-mkWmLGF6kZdztxk-11" style="edgeStyle=orthogonalEdgeStyle;rounded=0;orthogonalLoop=1;jettySize=auto;html=1;" parent="EeVNyMkZ5Xv2RsEspG1U-1" source="a4Ap-mkWmLGF6kZdztxk-1" target="iaEq5DibLvAJ-MCt7vLl-21" edge="1">
          <mxGeometry relative="1" as="geometry">
            <Array as="points">
              <mxPoint x="-1610" />
              <mxPoint x="-1610" />
            </Array>
          </mxGeometry>
        </mxCell>
        <mxCell id="a4Ap-mkWmLGF6kZdztxk-17" value="Tokenize" style="edgeLabel;html=1;align=center;verticalAlign=middle;resizable=0;points=[];" parent="a4Ap-mkWmLGF6kZdztxk-11" vertex="1" connectable="0">
          <mxGeometry x="0.04" y="1" relative="1" as="geometry">
            <mxPoint as="offset" />
          </mxGeometry>
        </mxCell>
        <mxCell id="a4Ap-mkWmLGF6kZdztxk-13" style="edgeStyle=orthogonalEdgeStyle;rounded=0;orthogonalLoop=1;jettySize=auto;html=1;" parent="EeVNyMkZ5Xv2RsEspG1U-1" source="iaEq5DibLvAJ-MCt7vLl-19" target="a4Ap-mkWmLGF6kZdztxk-5" edge="1">
          <mxGeometry relative="1" as="geometry">
            <Array as="points">
              <mxPoint x="-1119.9999999999998" y="160" />
              <mxPoint x="-1119.9999999999998" y="160" />
            </Array>
          </mxGeometry>
        </mxCell>
        <mxCell id="a4Ap-mkWmLGF6kZdztxk-22" value="下单支付" style="edgeLabel;html=1;align=center;verticalAlign=middle;resizable=0;points=[];" parent="a4Ap-mkWmLGF6kZdztxk-13" vertex="1" connectable="0">
          <mxGeometry x="0.0667" y="-1" relative="1" as="geometry">
            <mxPoint as="offset" />
          </mxGeometry>
        </mxCell>
        <mxCell id="a4Ap-mkWmLGF6kZdztxk-14" style="edgeStyle=orthogonalEdgeStyle;rounded=0;orthogonalLoop=1;jettySize=auto;html=1;" parent="EeVNyMkZ5Xv2RsEspG1U-1" source="a4Ap-mkWmLGF6kZdztxk-5" target="a4Ap-mkWmLGF6kZdztxk-7" edge="1">
          <mxGeometry relative="1" as="geometry">
            <Array as="points">
              <mxPoint x="-980" y="200" />
              <mxPoint x="-980" y="200" />
            </Array>
          </mxGeometry>
        </mxCell>
        <mxCell id="a4Ap-mkWmLGF6kZdztxk-23" value="Auth 2D/3D" style="edgeLabel;html=1;align=center;verticalAlign=middle;resizable=0;points=[];" parent="a4Ap-mkWmLGF6kZdztxk-14" vertex="1" connectable="0">
          <mxGeometry y="3" relative="1" as="geometry">
            <mxPoint as="offset" />
          </mxGeometry>
        </mxCell>
        <mxCell id="a4Ap-mkWmLGF6kZdztxk-15" style="edgeStyle=orthogonalEdgeStyle;rounded=0;orthogonalLoop=1;jettySize=auto;html=1;" parent="EeVNyMkZ5Xv2RsEspG1U-1" source="a4Ap-mkWmLGF6kZdztxk-7" target="a4Ap-mkWmLGF6kZdztxk-9" edge="1">
          <mxGeometry relative="1" as="geometry">
            <Array as="points">
              <mxPoint x="-740" y="320" />
              <mxPoint x="-740" y="320" />
            </Array>
          </mxGeometry>
        </mxCell>
        <mxCell id="a4Ap-mkWmLGF6kZdztxk-24" value="Auth 2D/3D" style="edgeLabel;html=1;align=center;verticalAlign=middle;resizable=0;points=[];" parent="a4Ap-mkWmLGF6kZdztxk-15" vertex="1" connectable="0">
          <mxGeometry x="0.1067" y="1" relative="1" as="geometry">
            <mxPoint x="12" y="1" as="offset" />
          </mxGeometry>
        </mxCell>
        <mxCell id="a4Ap-mkWmLGF6kZdztxk-19" value="panToken" style="html=1;verticalAlign=bottom;endArrow=open;dashed=1;endSize=8;" parent="EeVNyMkZ5Xv2RsEspG1U-1" source="iaEq5DibLvAJ-MCt7vLl-21" target="a4Ap-mkWmLGF6kZdztxk-1" edge="1">
          <mxGeometry relative="1" as="geometry">
            <mxPoint x="-1540" y="80" as="sourcePoint" />
            <mxPoint x="-1610" y="80" as="targetPoint" />
            <Array as="points">
              <mxPoint x="-1560" y="40" />
            </Array>
          </mxGeometry>
        </mxCell>
        <mxCell id="a4Ap-mkWmLGF6kZdztxk-25" value="Success/Pending" style="html=1;verticalAlign=bottom;endArrow=open;dashed=1;endSize=8;" parent="EeVNyMkZ5Xv2RsEspG1U-1" source="a4Ap-mkWmLGF6kZdztxk-9" target="a4Ap-mkWmLGF6kZdztxk-7" edge="1">
          <mxGeometry y="30" relative="1" as="geometry">
            <mxPoint x="-720" y="280" as="sourcePoint" />
            <mxPoint x="-830" y="280" as="targetPoint" />
            <Array as="points">
              <mxPoint x="-775" y="360" />
            </Array>
            <mxPoint as="offset" />
          </mxGeometry>
        </mxCell>
        <mxCell id="a4Ap-mkWmLGF6kZdztxk-26" value="Success/Pending" style="html=1;verticalAlign=bottom;endArrow=open;dashed=1;endSize=8;" parent="EeVNyMkZ5Xv2RsEspG1U-1" source="a4Ap-mkWmLGF6kZdztxk-7" target="a4Ap-mkWmLGF6kZdztxk-5" edge="1">
          <mxGeometry relative="1" as="geometry">
            <mxPoint x="-900" y="320" as="sourcePoint" />
            <mxPoint x="-980" y="320" as="targetPoint" />
            <Array as="points">
              <mxPoint x="-890" y="400" />
            </Array>
          </mxGeometry>
        </mxCell>
        <mxCell id="a4Ap-mkWmLGF6kZdztxk-27" value="Success/Pending" style="html=1;verticalAlign=bottom;endArrow=open;dashed=1;endSize=8;" parent="EeVNyMkZ5Xv2RsEspG1U-1" source="a4Ap-mkWmLGF6kZdztxk-5" target="iaEq5DibLvAJ-MCt7vLl-19" edge="1">
          <mxGeometry relative="1" as="geometry">
            <mxPoint x="-1059.9999999999998" y="360" as="sourcePoint" />
            <mxPoint x="-1139.9999999999998" y="360" as="targetPoint" />
            <Array as="points">
              <mxPoint x="-1099.9999999999998" y="440" />
            </Array>
          </mxGeometry>
        </mxCell>
        <mxCell id="a4Ap-mkWmLGF6kZdztxk-28" value="Success/Pending" style="html=1;verticalAlign=bottom;endArrow=open;dashed=1;endSize=8;" parent="EeVNyMkZ5Xv2RsEspG1U-1" source="iaEq5DibLvAJ-MCt7vLl-19" target="a4Ap-mkWmLGF6kZdztxk-1" edge="1">
          <mxGeometry relative="1" as="geometry">
            <mxPoint x="-1370" y="360" as="sourcePoint" />
            <mxPoint x="-1450" y="360" as="targetPoint" />
            <Array as="points">
              <mxPoint x="-1420" y="480" />
            </Array>
          </mxGeometry>
        </mxCell>
        <mxCell id="a4Ap-mkWmLGF6kZdztxk-29" value="Success/Pending" style="html=1;verticalAlign=bottom;endArrow=open;dashed=1;endSize=8;" parent="EeVNyMkZ5Xv2RsEspG1U-1" source="a4Ap-mkWmLGF6kZdztxk-1" target="a4Ap-mkWmLGF6kZdztxk-3" edge="1">
          <mxGeometry relative="1" as="geometry">
            <mxPoint x="-1700" y="440" as="sourcePoint" />
            <mxPoint x="-1780" y="440" as="targetPoint" />
            <Array as="points">
              <mxPoint x="-1730" y="520" />
            </Array>
          </mxGeometry>
        </mxCell>
        <mxCell id="a4Ap-mkWmLGF6kZdztxk-32" value="下单支付" style="html=1;fillColor=#A9C4EB;" parent="EeVNyMkZ5Xv2RsEspG1U-1" vertex="1">
          <mxGeometry x="-1880" y="-240" width="1560" height="40" as="geometry" />
        </mxCell>
        <mxCell id="a4Ap-mkWmLGF6kZdztxk-39" value="Shopline - backend" style="shape=umlLifeline;perimeter=lifelinePerimeter;whiteSpace=wrap;html=1;container=1;collapsible=0;recursiveResize=0;outlineConnect=0;fillColor=#CCCCCC;" parent="EeVNyMkZ5Xv2RsEspG1U-1" vertex="1">
          <mxGeometry x="-120" y="-160" width="120" height="680" as="geometry" />
        </mxCell>
        <mxCell id="a4Ap-mkWmLGF6kZdztxk-40" value="" style="html=1;points=[];perimeter=orthogonalPerimeter;fillColor=#B3B3B3;" parent="a4Ap-mkWmLGF6kZdztxk-39" vertex="1">
          <mxGeometry x="55" y="80" width="10" height="560" as="geometry" />
        </mxCell>
        <mxCell id="a4Ap-mkWmLGF6kZdztxk-41" value="Core" style="shape=umlLifeline;perimeter=lifelinePerimeter;whiteSpace=wrap;html=1;container=1;collapsible=0;recursiveResize=0;outlineConnect=0;fillColor=#FFFFFF;" parent="EeVNyMkZ5Xv2RsEspG1U-1" vertex="1">
          <mxGeometry x="200" y="-160" width="120" height="680" as="geometry" />
        </mxCell>
        <mxCell id="a4Ap-mkWmLGF6kZdztxk-42" value="" style="html=1;points=[];perimeter=orthogonalPerimeter;fillColor=#B3B3B3;" parent="a4Ap-mkWmLGF6kZdztxk-41" vertex="1">
          <mxGeometry x="55" y="80" width="10" height="560" as="geometry" />
        </mxCell>
        <mxCell id="a4Ap-mkWmLGF6kZdztxk-111" style="edgeStyle=orthogonalEdgeStyle;rounded=0;orthogonalLoop=1;jettySize=auto;html=1;" parent="a4Ap-mkWmLGF6kZdztxk-41" source="a4Ap-mkWmLGF6kZdztxk-42" target="a4Ap-mkWmLGF6kZdztxk-42" edge="1">
          <mxGeometry relative="1" as="geometry">
            <Array as="points">
              <mxPoint x="120" y="400" />
              <mxPoint x="120" y="440" />
            </Array>
          </mxGeometry>
        </mxCell>
        <mxCell id="a4Ap-mkWmLGF6kZdztxk-112" value="update status" style="edgeLabel;html=1;align=center;verticalAlign=middle;resizable=0;points=[];" parent="a4Ap-mkWmLGF6kZdztxk-111" vertex="1" connectable="0">
          <mxGeometry x="-0.0298" y="1" relative="1" as="geometry">
            <mxPoint as="offset" />
          </mxGeometry>
        </mxCell>
        <mxCell id="a4Ap-mkWmLGF6kZdztxk-43" value="Adaptor" style="shape=umlLifeline;perimeter=lifelinePerimeter;whiteSpace=wrap;html=1;container=1;collapsible=0;recursiveResize=0;outlineConnect=0;fillColor=#FFFFFF;" parent="EeVNyMkZ5Xv2RsEspG1U-1" vertex="1">
          <mxGeometry x="360" y="-160" width="120" height="680" as="geometry" />
        </mxCell>
        <mxCell id="a4Ap-mkWmLGF6kZdztxk-44" value="" style="html=1;points=[];perimeter=orthogonalPerimeter;fillColor=#B3B3B3;" parent="a4Ap-mkWmLGF6kZdztxk-43" vertex="1">
          <mxGeometry x="55" y="80" width="10" height="560" as="geometry" />
        </mxCell>
        <mxCell id="a4Ap-mkWmLGF6kZdztxk-108" value="&lt;meta charset=&quot;utf-8&quot;&gt;&lt;span style=&quot;color: rgba(0, 0, 0, 0); font-family: monospace; font-size: 0px; font-style: normal; font-weight: 400; letter-spacing: normal; text-indent: 0px; text-transform: none; word-spacing: 0px; background-color: rgb(255, 255, 255); display: inline; float: none;&quot;&gt;&amp;nbsp;&lt;/span&gt;" style="edgeStyle=orthogonalEdgeStyle;rounded=0;orthogonalLoop=1;jettySize=auto;html=1;elbow=vertical;" parent="a4Ap-mkWmLGF6kZdztxk-43" source="a4Ap-mkWmLGF6kZdztxk-44" target="a4Ap-mkWmLGF6kZdztxk-44" edge="1">
          <mxGeometry relative="1" as="geometry">
            <Array as="points">
              <mxPoint x="120" y="280" />
              <mxPoint x="100" y="320" />
            </Array>
          </mxGeometry>
        </mxCell>
        <mxCell id="a4Ap-mkWmLGF6kZdztxk-109" value="Save result/request" style="edgeLabel;html=1;align=center;verticalAlign=middle;resizable=0;points=[];" parent="a4Ap-mkWmLGF6kZdztxk-108" vertex="1" connectable="0">
          <mxGeometry x="-0.0455" y="1" relative="1" as="geometry">
            <mxPoint as="offset" />
          </mxGeometry>
        </mxCell>
        <mxCell id="a4Ap-mkWmLGF6kZdztxk-45" value="Taishin" style="shape=umlLifeline;perimeter=lifelinePerimeter;whiteSpace=wrap;html=1;container=1;collapsible=0;recursiveResize=0;outlineConnect=0;fillColor=#CCCCCC;" parent="EeVNyMkZ5Xv2RsEspG1U-1" vertex="1">
          <mxGeometry x="520" y="-160" width="120" height="680" as="geometry" />
        </mxCell>
        <mxCell id="a4Ap-mkWmLGF6kZdztxk-46" value="" style="html=1;points=[];perimeter=orthogonalPerimeter;fillColor=#B3B3B3;" parent="a4Ap-mkWmLGF6kZdztxk-45" vertex="1">
          <mxGeometry x="55" y="80" width="10" height="560" as="geometry" />
        </mxCell>
        <mxCell id="a4Ap-mkWmLGF6kZdztxk-65" value="Auth 3D / Refund web hook" style="html=1;fillColor=#A9C4EB;" parent="EeVNyMkZ5Xv2RsEspG1U-1" vertex="1">
          <mxGeometry x="-120" y="-240" width="760" height="40" as="geometry" />
        </mxCell>
        <mxCell id="a4Ap-mkWmLGF6kZdztxk-66" style="edgeStyle=orthogonalEdgeStyle;rounded=0;orthogonalLoop=1;jettySize=auto;html=1;" parent="EeVNyMkZ5Xv2RsEspG1U-1" source="a4Ap-mkWmLGF6kZdztxk-7" target="iaEq5DibLvAJ-MCt7vLl-21" edge="1">
          <mxGeometry relative="1" as="geometry">
            <Array as="points">
              <mxPoint x="-1130" y="240" />
              <mxPoint x="-1130" y="240" />
            </Array>
          </mxGeometry>
        </mxCell>
        <mxCell id="a4Ap-mkWmLGF6kZdztxk-67" value="Detokenize" style="edgeLabel;html=1;align=center;verticalAlign=middle;resizable=0;points=[];" parent="a4Ap-mkWmLGF6kZdztxk-66" vertex="1" connectable="0">
          <mxGeometry x="-0.017" relative="1" as="geometry">
            <mxPoint as="offset" />
          </mxGeometry>
        </mxCell>
        <mxCell id="a4Ap-mkWmLGF6kZdztxk-68" value="Card Num" style="html=1;verticalAlign=bottom;endArrow=open;dashed=1;endSize=8;" parent="EeVNyMkZ5Xv2RsEspG1U-1" source="iaEq5DibLvAJ-MCt7vLl-21" target="a4Ap-mkWmLGF6kZdztxk-7" edge="1">
          <mxGeometry relative="1" as="geometry">
            <mxPoint x="-1370" y="320" as="sourcePoint" />
            <mxPoint x="-1450" y="320" as="targetPoint" />
            <Array as="points">
              <mxPoint x="-1100" y="280" />
            </Array>
          </mxGeometry>
        </mxCell>
        <mxCell id="a4Ap-mkWmLGF6kZdztxk-94" value="Proxy" style="pointerEvents=1;shadow=0;dashed=0;html=1;strokeColor=none;fillColor=#4495D1;labelPosition=center;verticalLabelPosition=bottom;verticalAlign=top;align=center;outlineConnect=0;shape=mxgraph.veeam.2d.proxy;" parent="EeVNyMkZ5Xv2RsEspG1U-1" vertex="1">
          <mxGeometry x="-830" y="300" width="40" height="40" as="geometry" />
        </mxCell>
        <mxCell id="a4Ap-mkWmLGF6kZdztxk-97" style="edgeStyle=orthogonalEdgeStyle;rounded=0;orthogonalLoop=1;jettySize=auto;html=1;" parent="EeVNyMkZ5Xv2RsEspG1U-1" source="a4Ap-mkWmLGF6kZdztxk-46" target="a4Ap-mkWmLGF6kZdztxk-44" edge="1">
          <mxGeometry relative="1" as="geometry">
            <Array as="points">
              <mxPoint x="480" />
              <mxPoint x="480" />
            </Array>
          </mxGeometry>
        </mxCell>
        <mxCell id="a4Ap-mkWmLGF6kZdztxk-98" value="result" style="edgeLabel;html=1;align=center;verticalAlign=middle;resizable=0;points=[];" parent="a4Ap-mkWmLGF6kZdztxk-97" vertex="1" connectable="0">
          <mxGeometry x="-0.0471" y="-2" relative="1" as="geometry">
            <mxPoint as="offset" />
          </mxGeometry>
        </mxCell>
        <mxCell id="a4Ap-mkWmLGF6kZdztxk-99" value="result" style="edgeStyle=orthogonalEdgeStyle;rounded=0;orthogonalLoop=1;jettySize=auto;html=1;" parent="EeVNyMkZ5Xv2RsEspG1U-1" source="a4Ap-mkWmLGF6kZdztxk-44" target="a4Ap-mkWmLGF6kZdztxk-42" edge="1">
          <mxGeometry relative="1" as="geometry">
            <Array as="points">
              <mxPoint x="390" y="200" />
              <mxPoint x="390" y="200" />
            </Array>
          </mxGeometry>
        </mxCell>
        <mxCell id="a4Ap-mkWmLGF6kZdztxk-100" style="edgeStyle=orthogonalEdgeStyle;rounded=0;orthogonalLoop=1;jettySize=auto;html=1;" parent="EeVNyMkZ5Xv2RsEspG1U-1" source="a4Ap-mkWmLGF6kZdztxk-42" target="a4Ap-mkWmLGF6kZdztxk-242" edge="1">
          <mxGeometry relative="1" as="geometry">
            <Array as="points">
              <mxPoint x="230" y="320" />
              <mxPoint x="230" y="320" />
            </Array>
          </mxGeometry>
        </mxCell>
        <mxCell id="a4Ap-mkWmLGF6kZdztxk-101" value="result" style="edgeLabel;html=1;align=center;verticalAlign=middle;resizable=0;points=[];" parent="a4Ap-mkWmLGF6kZdztxk-100" vertex="1" connectable="0">
          <mxGeometry x="-0.1755" y="-1" relative="1" as="geometry">
            <mxPoint as="offset" />
          </mxGeometry>
        </mxCell>
        <mxCell id="a4Ap-mkWmLGF6kZdztxk-105" value="query" style="edgeStyle=orthogonalEdgeStyle;rounded=0;orthogonalLoop=1;jettySize=auto;html=1;" parent="EeVNyMkZ5Xv2RsEspG1U-1" source="a4Ap-mkWmLGF6kZdztxk-44" target="a4Ap-mkWmLGF6kZdztxk-46" edge="1">
          <mxGeometry relative="1" as="geometry">
            <Array as="points">
              <mxPoint x="565" y="40" />
              <mxPoint x="565" y="40" />
            </Array>
          </mxGeometry>
        </mxCell>
        <mxCell id="a4Ap-mkWmLGF6kZdztxk-115" value="API" style="shape=umlLifeline;perimeter=lifelinePerimeter;whiteSpace=wrap;html=1;container=1;collapsible=0;recursiveResize=0;outlineConnect=0;fillColor=#FFFFFF;" parent="EeVNyMkZ5Xv2RsEspG1U-1" vertex="1">
          <mxGeometry x="-1560" y="800" width="120" height="720" as="geometry" />
        </mxCell>
        <mxCell id="a4Ap-mkWmLGF6kZdztxk-116" value="" style="html=1;points=[];perimeter=orthogonalPerimeter;fillColor=#B3B3B3;" parent="a4Ap-mkWmLGF6kZdztxk-115" vertex="1">
          <mxGeometry x="55" y="80" width="10" height="600" as="geometry" />
        </mxCell>
        <mxCell id="a4Ap-mkWmLGF6kZdztxk-121" value="Gateway" style="shape=umlLifeline;perimeter=lifelinePerimeter;whiteSpace=wrap;html=1;container=1;collapsible=0;recursiveResize=0;outlineConnect=0;fillColor=#FFFFFF;" parent="EeVNyMkZ5Xv2RsEspG1U-1" vertex="1">
          <mxGeometry x="-1720" y="800" width="120" height="720" as="geometry" />
        </mxCell>
        <mxCell id="a4Ap-mkWmLGF6kZdztxk-122" value="" style="html=1;points=[];perimeter=orthogonalPerimeter;fillColor=#B3B3B3;" parent="a4Ap-mkWmLGF6kZdztxk-121" vertex="1">
          <mxGeometry x="55" y="80" width="10" height="600" as="geometry" />
        </mxCell>
        <mxCell id="a4Ap-mkWmLGF6kZdztxk-123" value="Shopline - backend" style="shape=umlLifeline;perimeter=lifelinePerimeter;whiteSpace=wrap;html=1;container=1;collapsible=0;recursiveResize=0;outlineConnect=0;fillColor=#CCCCCC;" parent="EeVNyMkZ5Xv2RsEspG1U-1" vertex="1">
          <mxGeometry x="-1880" y="800" width="120" height="720" as="geometry" />
        </mxCell>
        <mxCell id="a4Ap-mkWmLGF6kZdztxk-124" value="" style="html=1;points=[];perimeter=orthogonalPerimeter;fillColor=#B3B3B3;" parent="a4Ap-mkWmLGF6kZdztxk-123" vertex="1">
          <mxGeometry x="55" y="80" width="10" height="600" as="geometry" />
        </mxCell>
        <mxCell id="a4Ap-mkWmLGF6kZdztxk-125" value="Core" style="shape=umlLifeline;perimeter=lifelinePerimeter;whiteSpace=wrap;html=1;container=1;collapsible=0;recursiveResize=0;outlineConnect=0;fillColor=#FFFFFF;" parent="EeVNyMkZ5Xv2RsEspG1U-1" vertex="1">
          <mxGeometry x="-1400" y="800" width="120" height="720" as="geometry" />
        </mxCell>
        <mxCell id="a4Ap-mkWmLGF6kZdztxk-126" value="" style="html=1;points=[];perimeter=orthogonalPerimeter;fillColor=#B3B3B3;" parent="a4Ap-mkWmLGF6kZdztxk-125" vertex="1">
          <mxGeometry x="55" y="80" width="10" height="600" as="geometry" />
        </mxCell>
        <mxCell id="a4Ap-mkWmLGF6kZdztxk-127" value="Adaptor Taishin" style="shape=umlLifeline;perimeter=lifelinePerimeter;whiteSpace=wrap;html=1;container=1;collapsible=0;recursiveResize=0;outlineConnect=0;fillColor=#FFFFFF;" parent="EeVNyMkZ5Xv2RsEspG1U-1" vertex="1">
          <mxGeometry x="-1080" y="800" width="120" height="720" as="geometry" />
        </mxCell>
        <mxCell id="a4Ap-mkWmLGF6kZdztxk-128" value="" style="html=1;points=[];perimeter=orthogonalPerimeter;fillColor=#B3B3B3;" parent="a4Ap-mkWmLGF6kZdztxk-127" vertex="1">
          <mxGeometry x="55" y="80" width="10" height="600" as="geometry" />
        </mxCell>
        <mxCell id="a4Ap-mkWmLGF6kZdztxk-129" value="Taishin" style="shape=umlLifeline;perimeter=lifelinePerimeter;whiteSpace=wrap;html=1;container=1;collapsible=0;recursiveResize=0;outlineConnect=0;fillColor=#CCCCCC;" parent="EeVNyMkZ5Xv2RsEspG1U-1" vertex="1">
          <mxGeometry x="-920" y="800" width="120" height="720" as="geometry" />
        </mxCell>
        <mxCell id="a4Ap-mkWmLGF6kZdztxk-130" value="" style="html=1;points=[];perimeter=orthogonalPerimeter;fillColor=#B3B3B3;" parent="a4Ap-mkWmLGF6kZdztxk-129" vertex="1">
          <mxGeometry x="55" y="80" width="10" height="600" as="geometry" />
        </mxCell>
        <mxCell id="a4Ap-mkWmLGF6kZdztxk-131" style="edgeStyle=orthogonalEdgeStyle;rounded=0;orthogonalLoop=1;jettySize=auto;html=1;" parent="EeVNyMkZ5Xv2RsEspG1U-1" source="a4Ap-mkWmLGF6kZdztxk-124" target="a4Ap-mkWmLGF6kZdztxk-122" edge="1">
          <mxGeometry relative="1" as="geometry">
            <Array as="points">
              <mxPoint x="-1750" y="920" />
              <mxPoint x="-1750" y="920" />
            </Array>
          </mxGeometry>
        </mxCell>
        <mxCell id="a4Ap-mkWmLGF6kZdztxk-132" value="&lt;span style=&quot;font-size: 12px&quot;&gt;Refund&lt;/span&gt;" style="edgeLabel;html=1;align=center;verticalAlign=middle;resizable=0;points=[];" parent="a4Ap-mkWmLGF6kZdztxk-131" vertex="1" connectable="0">
          <mxGeometry x="0.0533" y="1" relative="1" as="geometry">
            <mxPoint as="offset" />
          </mxGeometry>
        </mxCell>
        <mxCell id="a4Ap-mkWmLGF6kZdztxk-133" style="edgeStyle=orthogonalEdgeStyle;rounded=0;orthogonalLoop=1;jettySize=auto;html=1;" parent="EeVNyMkZ5Xv2RsEspG1U-1" source="a4Ap-mkWmLGF6kZdztxk-122" edge="1">
          <mxGeometry relative="1" as="geometry">
            <Array as="points">
              <mxPoint x="-1610" y="960" />
              <mxPoint x="-1610" y="960" />
            </Array>
            <mxPoint x="-1505" y="960" as="targetPoint" />
          </mxGeometry>
        </mxCell>
        <mxCell id="a4Ap-mkWmLGF6kZdztxk-134" value="&lt;span style=&quot;font-size: 12px&quot;&gt;Refund&lt;/span&gt;" style="edgeLabel;html=1;align=center;verticalAlign=middle;resizable=0;points=[];" parent="a4Ap-mkWmLGF6kZdztxk-133" vertex="1" connectable="0">
          <mxGeometry x="0.04" y="1" relative="1" as="geometry">
            <mxPoint as="offset" />
          </mxGeometry>
        </mxCell>
        <mxCell id="a4Ap-mkWmLGF6kZdztxk-135" style="edgeStyle=orthogonalEdgeStyle;rounded=0;orthogonalLoop=1;jettySize=auto;html=1;" parent="EeVNyMkZ5Xv2RsEspG1U-1" source="a4Ap-mkWmLGF6kZdztxk-116" target="a4Ap-mkWmLGF6kZdztxk-126" edge="1">
          <mxGeometry relative="1" as="geometry">
            <Array as="points">
              <mxPoint x="-1390" y="1000" />
              <mxPoint x="-1390" y="1000" />
            </Array>
          </mxGeometry>
        </mxCell>
        <mxCell id="a4Ap-mkWmLGF6kZdztxk-136" value="&lt;span style=&quot;font-size: 12px&quot;&gt;Refund&lt;/span&gt;" style="edgeLabel;html=1;align=center;verticalAlign=middle;resizable=0;points=[];" parent="a4Ap-mkWmLGF6kZdztxk-135" vertex="1" connectable="0">
          <mxGeometry x="0.0667" y="-1" relative="1" as="geometry">
            <mxPoint as="offset" />
          </mxGeometry>
        </mxCell>
        <mxCell id="a4Ap-mkWmLGF6kZdztxk-142" value="Pending" style="html=1;verticalAlign=bottom;endArrow=open;dashed=1;endSize=8;" parent="EeVNyMkZ5Xv2RsEspG1U-1" source="a4Ap-mkWmLGF6kZdztxk-130" target="a4Ap-mkWmLGF6kZdztxk-128" edge="1">
          <mxGeometry relative="1" as="geometry">
            <mxPoint x="-80" y="1200" as="sourcePoint" />
            <mxPoint x="-190" y="1200" as="targetPoint" />
            <Array as="points">
              <mxPoint x="-940" y="1200" />
            </Array>
            <mxPoint as="offset" />
          </mxGeometry>
        </mxCell>
        <mxCell id="a4Ap-mkWmLGF6kZdztxk-144" value="Pending" style="html=1;verticalAlign=bottom;endArrow=open;dashed=1;endSize=8;" parent="EeVNyMkZ5Xv2RsEspG1U-1" source="a4Ap-mkWmLGF6kZdztxk-126" target="a4Ap-mkWmLGF6kZdztxk-116" edge="1">
          <mxGeometry relative="1" as="geometry">
            <mxPoint x="-1220" y="1280" as="sourcePoint" />
            <mxPoint x="-1300" y="1280" as="targetPoint" />
            <Array as="points">
              <mxPoint x="-1420" y="1040" />
            </Array>
          </mxGeometry>
        </mxCell>
        <mxCell id="a4Ap-mkWmLGF6kZdztxk-145" value="Pending" style="html=1;verticalAlign=bottom;endArrow=open;dashed=1;endSize=8;" parent="EeVNyMkZ5Xv2RsEspG1U-1" source="a4Ap-mkWmLGF6kZdztxk-116" target="a4Ap-mkWmLGF6kZdztxk-122" edge="1">
          <mxGeometry relative="1" as="geometry">
            <mxPoint x="-1370" y="1280" as="sourcePoint" />
            <mxPoint x="-1450" y="1280" as="targetPoint" />
            <Array as="points">
              <mxPoint x="-1540" y="1080" />
            </Array>
          </mxGeometry>
        </mxCell>
        <mxCell id="a4Ap-mkWmLGF6kZdztxk-146" value="Pending" style="html=1;verticalAlign=bottom;endArrow=open;dashed=1;endSize=8;" parent="EeVNyMkZ5Xv2RsEspG1U-1" source="a4Ap-mkWmLGF6kZdztxk-122" target="a4Ap-mkWmLGF6kZdztxk-124" edge="1">
          <mxGeometry relative="1" as="geometry">
            <mxPoint x="-1700" y="1360" as="sourcePoint" />
            <mxPoint x="-1780" y="1360" as="targetPoint" />
            <Array as="points">
              <mxPoint x="-1700" y="1120" />
            </Array>
          </mxGeometry>
        </mxCell>
        <mxCell id="a4Ap-mkWmLGF6kZdztxk-147" value="Refund" style="html=1;fillColor=#A9C4EB;" parent="EeVNyMkZ5Xv2RsEspG1U-1" vertex="1">
          <mxGeometry x="-1880" y="720" width="1080" height="40" as="geometry" />
        </mxCell>
        <mxCell id="a4Ap-mkWmLGF6kZdztxk-156" style="edgeStyle=orthogonalEdgeStyle;rounded=0;orthogonalLoop=1;jettySize=auto;html=1;" parent="EeVNyMkZ5Xv2RsEspG1U-1" source="a4Ap-mkWmLGF6kZdztxk-128" target="a4Ap-mkWmLGF6kZdztxk-130" edge="1">
          <mxGeometry relative="1" as="geometry">
            <Array as="points">
              <mxPoint x="-900" y="1120" />
              <mxPoint x="-900" y="1120" />
            </Array>
          </mxGeometry>
        </mxCell>
        <mxCell id="a4Ap-mkWmLGF6kZdztxk-157" value="Refund" style="edgeLabel;html=1;align=center;verticalAlign=middle;resizable=0;points=[];" parent="a4Ap-mkWmLGF6kZdztxk-156" vertex="1" connectable="0">
          <mxGeometry x="0.0471" y="-1" relative="1" as="geometry">
            <mxPoint x="26.43" as="offset" />
          </mxGeometry>
        </mxCell>
        <mxCell id="a4Ap-mkWmLGF6kZdztxk-231" value="Notify" style="shape=umlLifeline;perimeter=lifelinePerimeter;whiteSpace=wrap;html=1;container=1;collapsible=0;recursiveResize=0;outlineConnect=0;fillColor=#FFFFFF;" parent="EeVNyMkZ5Xv2RsEspG1U-1" vertex="1">
          <mxGeometry x="-600" y="-160" width="120" height="760" as="geometry" />
        </mxCell>
        <mxCell id="a4Ap-mkWmLGF6kZdztxk-232" value="" style="html=1;points=[];perimeter=orthogonalPerimeter;fillColor=#B3B3B3;" parent="a4Ap-mkWmLGF6kZdztxk-231" vertex="1">
          <mxGeometry x="55" y="80" width="10" height="640" as="geometry" />
        </mxCell>
        <mxCell id="a4Ap-mkWmLGF6kZdztxk-233" style="edgeStyle=orthogonalEdgeStyle;rounded=0;orthogonalLoop=1;jettySize=auto;html=1;fillColor=#FF0000;" parent="EeVNyMkZ5Xv2RsEspG1U-1" source="a4Ap-mkWmLGF6kZdztxk-5" target="a4Ap-mkWmLGF6kZdztxk-232" edge="1">
          <mxGeometry relative="1" as="geometry">
            <Array as="points">
              <mxPoint x="-907.86" y="480" />
              <mxPoint x="-907.86" y="480" />
            </Array>
          </mxGeometry>
        </mxCell>
        <mxCell id="a4Ap-mkWmLGF6kZdztxk-234" value="&lt;span style=&quot;font-size: 12px&quot;&gt;Notify&lt;/span&gt;" style="edgeLabel;html=1;align=center;verticalAlign=middle;resizable=0;points=[];" parent="a4Ap-mkWmLGF6kZdztxk-233" vertex="1" connectable="0">
          <mxGeometry x="-0.0447" y="-1" relative="1" as="geometry">
            <mxPoint as="offset" />
          </mxGeometry>
        </mxCell>
        <mxCell id="a4Ap-mkWmLGF6kZdztxk-235" value="Shopline - backend" style="shape=umlLifeline;perimeter=lifelinePerimeter;whiteSpace=wrap;html=1;container=1;collapsible=0;recursiveResize=0;outlineConnect=0;fillColor=#CCCCCC;" parent="EeVNyMkZ5Xv2RsEspG1U-1" vertex="1">
          <mxGeometry x="-440" y="-160" width="120" height="760" as="geometry" />
        </mxCell>
        <mxCell id="a4Ap-mkWmLGF6kZdztxk-236" value="" style="html=1;points=[];perimeter=orthogonalPerimeter;fillColor=#B3B3B3;" parent="a4Ap-mkWmLGF6kZdztxk-235" vertex="1">
          <mxGeometry x="55" y="80" width="10" height="640" as="geometry" />
        </mxCell>
        <mxCell id="a4Ap-mkWmLGF6kZdztxk-237" style="edgeStyle=orthogonalEdgeStyle;rounded=0;orthogonalLoop=1;jettySize=auto;html=1;fillColor=#FF0000;" parent="EeVNyMkZ5Xv2RsEspG1U-1" source="a4Ap-mkWmLGF6kZdztxk-232" target="a4Ap-mkWmLGF6kZdztxk-236" edge="1">
          <mxGeometry relative="1" as="geometry">
            <Array as="points">
              <mxPoint x="-487.86" y="520" />
              <mxPoint x="-487.86" y="520" />
            </Array>
          </mxGeometry>
        </mxCell>
        <mxCell id="a4Ap-mkWmLGF6kZdztxk-238" value="&lt;span style=&quot;font-size: 12px&quot;&gt;Notify&lt;/span&gt;" style="edgeLabel;html=1;align=center;verticalAlign=middle;resizable=0;points=[];" parent="a4Ap-mkWmLGF6kZdztxk-237" vertex="1" connectable="0">
          <mxGeometry x="-0.0627" y="-1" relative="1" as="geometry">
            <mxPoint as="offset" />
          </mxGeometry>
        </mxCell>
        <mxCell id="a4Ap-mkWmLGF6kZdztxk-241" value="Notify" style="shape=umlLifeline;perimeter=lifelinePerimeter;whiteSpace=wrap;html=1;container=1;collapsible=0;recursiveResize=0;outlineConnect=0;fillColor=#FFFFFF;" parent="EeVNyMkZ5Xv2RsEspG1U-1" vertex="1">
          <mxGeometry x="40" y="-160" width="120" height="680" as="geometry" />
        </mxCell>
        <mxCell id="a4Ap-mkWmLGF6kZdztxk-242" value="" style="html=1;points=[];perimeter=orthogonalPerimeter;fillColor=#B3B3B3;" parent="a4Ap-mkWmLGF6kZdztxk-241" vertex="1">
          <mxGeometry x="55" y="80" width="10" height="560" as="geometry" />
        </mxCell>
        <mxCell id="a4Ap-mkWmLGF6kZdztxk-245" style="edgeStyle=orthogonalEdgeStyle;rounded=0;orthogonalLoop=1;jettySize=auto;html=1;fillColor=#FF0000;" parent="EeVNyMkZ5Xv2RsEspG1U-1" source="a4Ap-mkWmLGF6kZdztxk-242" target="a4Ap-mkWmLGF6kZdztxk-40" edge="1">
          <mxGeometry relative="1" as="geometry">
            <Array as="points">
              <mxPoint x="20" y="360" />
              <mxPoint x="20" y="360" />
            </Array>
          </mxGeometry>
        </mxCell>
        <mxCell id="a4Ap-mkWmLGF6kZdztxk-246" value="result" style="edgeLabel;html=1;align=center;verticalAlign=middle;resizable=0;points=[];" parent="a4Ap-mkWmLGF6kZdztxk-245" vertex="1" connectable="0">
          <mxGeometry x="0.1412" relative="1" as="geometry">
            <mxPoint as="offset" />
          </mxGeometry>
        </mxCell>
        <mxCell id="a4Ap-mkWmLGF6kZdztxk-247" value="result" style="html=1;verticalAlign=bottom;endArrow=open;dashed=1;endSize=8;" parent="EeVNyMkZ5Xv2RsEspG1U-1" source="a4Ap-mkWmLGF6kZdztxk-46" target="a4Ap-mkWmLGF6kZdztxk-44" edge="1">
          <mxGeometry relative="1" as="geometry">
            <mxPoint x="550" y="80" as="sourcePoint" />
            <mxPoint x="450" y="79.99999999999977" as="targetPoint" />
            <Array as="points">
              <mxPoint x="530" y="80" />
            </Array>
          </mxGeometry>
        </mxCell>
        <mxCell id="a4Ap-mkWmLGF6kZdztxk-252" value="Notify" style="shape=umlLifeline;perimeter=lifelinePerimeter;whiteSpace=wrap;html=1;container=1;collapsible=0;recursiveResize=0;outlineConnect=0;fillColor=#FFFFFF;" parent="EeVNyMkZ5Xv2RsEspG1U-1" vertex="1">
          <mxGeometry x="-1240" y="800" width="120" height="720" as="geometry" />
        </mxCell>
        <mxCell id="a4Ap-mkWmLGF6kZdztxk-253" value="" style="html=1;points=[];perimeter=orthogonalPerimeter;fillColor=#B3B3B3;" parent="a4Ap-mkWmLGF6kZdztxk-252" vertex="1">
          <mxGeometry x="55" y="80" width="10" height="600" as="geometry" />
        </mxCell>
        <mxCell id="a4Ap-mkWmLGF6kZdztxk-259" value="Shopline" style="shape=umlLifeline;perimeter=lifelinePerimeter;whiteSpace=wrap;html=1;container=1;collapsible=0;recursiveResize=0;outlineConnect=0;fillColor=#CCCCCC;" parent="EeVNyMkZ5Xv2RsEspG1U-1" vertex="1">
          <mxGeometry x="-640" y="800" width="120" height="680" as="geometry" />
        </mxCell>
        <mxCell id="a4Ap-mkWmLGF6kZdztxk-260" value="" style="html=1;points=[];perimeter=orthogonalPerimeter;fillColor=#B3B3B3;" parent="a4Ap-mkWmLGF6kZdztxk-259" vertex="1">
          <mxGeometry x="55" y="80" width="10" height="560" as="geometry" />
        </mxCell>
        <mxCell id="a4Ap-mkWmLGF6kZdztxk-261" value="API" style="shape=umlLifeline;perimeter=lifelinePerimeter;whiteSpace=wrap;html=1;container=1;collapsible=0;recursiveResize=0;outlineConnect=0;fillColor=#FFFFFF;" parent="EeVNyMkZ5Xv2RsEspG1U-1" vertex="1">
          <mxGeometry x="-320" y="800" width="120" height="680" as="geometry" />
        </mxCell>
        <mxCell id="a4Ap-mkWmLGF6kZdztxk-262" value="" style="html=1;points=[];perimeter=orthogonalPerimeter;fillColor=#B3B3B3;" parent="a4Ap-mkWmLGF6kZdztxk-261" vertex="1">
          <mxGeometry x="55" y="80" width="10" height="560" as="geometry" />
        </mxCell>
        <mxCell id="a4Ap-mkWmLGF6kZdztxk-265" value="Core" style="shape=umlLifeline;perimeter=lifelinePerimeter;whiteSpace=wrap;html=1;container=1;collapsible=0;recursiveResize=0;outlineConnect=0;fillColor=#FFFFFF;" parent="EeVNyMkZ5Xv2RsEspG1U-1" vertex="1">
          <mxGeometry x="-160" y="800" width="120" height="680" as="geometry" />
        </mxCell>
        <mxCell id="a4Ap-mkWmLGF6kZdztxk-266" value="" style="html=1;points=[];perimeter=orthogonalPerimeter;fillColor=#B3B3B3;" parent="a4Ap-mkWmLGF6kZdztxk-265" vertex="1">
          <mxGeometry x="55" y="80" width="10" height="560" as="geometry" />
        </mxCell>
        <mxCell id="a4Ap-mkWmLGF6kZdztxk-271" value="Shopline 订单查询" style="html=1;fillColor=#A9C4EB;" parent="EeVNyMkZ5Xv2RsEspG1U-1" vertex="1">
          <mxGeometry x="-640" y="720" width="600" height="40" as="geometry" />
        </mxCell>
        <mxCell id="a4Ap-mkWmLGF6kZdztxk-278" value="Gateway" style="shape=umlLifeline;perimeter=lifelinePerimeter;whiteSpace=wrap;html=1;container=1;collapsible=0;recursiveResize=0;outlineConnect=0;fillColor=#FFFFFF;" parent="EeVNyMkZ5Xv2RsEspG1U-1" vertex="1">
          <mxGeometry x="-480" y="800" width="120" height="680" as="geometry" />
        </mxCell>
        <mxCell id="a4Ap-mkWmLGF6kZdztxk-279" value="" style="html=1;points=[];perimeter=orthogonalPerimeter;fillColor=#B3B3B3;" parent="a4Ap-mkWmLGF6kZdztxk-278" vertex="1">
          <mxGeometry x="55" y="80" width="10" height="560" as="geometry" />
        </mxCell>
        <mxCell id="a4Ap-mkWmLGF6kZdztxk-283" style="edgeStyle=orthogonalEdgeStyle;rounded=0;orthogonalLoop=1;jettySize=auto;html=1;fillColor=#FF0000;" parent="EeVNyMkZ5Xv2RsEspG1U-1" source="a4Ap-mkWmLGF6kZdztxk-260" target="a4Ap-mkWmLGF6kZdztxk-279" edge="1">
          <mxGeometry relative="1" as="geometry">
            <Array as="points">
              <mxPoint x="-460" y="960" />
              <mxPoint x="-460" y="960" />
            </Array>
          </mxGeometry>
        </mxCell>
        <mxCell id="a4Ap-mkWmLGF6kZdztxk-286" value="query" style="edgeLabel;html=1;align=center;verticalAlign=middle;resizable=0;points=[];" parent="a4Ap-mkWmLGF6kZdztxk-283" vertex="1" connectable="0">
          <mxGeometry x="0.0157" y="1" relative="1" as="geometry">
            <mxPoint as="offset" />
          </mxGeometry>
        </mxCell>
        <mxCell id="a4Ap-mkWmLGF6kZdztxk-284" style="edgeStyle=orthogonalEdgeStyle;rounded=0;orthogonalLoop=1;jettySize=auto;html=1;fillColor=#FF0000;" parent="EeVNyMkZ5Xv2RsEspG1U-1" source="a4Ap-mkWmLGF6kZdztxk-279" target="a4Ap-mkWmLGF6kZdztxk-262" edge="1">
          <mxGeometry relative="1" as="geometry">
            <Array as="points">
              <mxPoint x="-310" y="1000" />
              <mxPoint x="-310" y="1000" />
            </Array>
          </mxGeometry>
        </mxCell>
        <mxCell id="a4Ap-mkWmLGF6kZdztxk-287" value="query" style="edgeLabel;html=1;align=center;verticalAlign=middle;resizable=0;points=[];" parent="a4Ap-mkWmLGF6kZdztxk-284" vertex="1" connectable="0">
          <mxGeometry x="0.0941" relative="1" as="geometry">
            <mxPoint as="offset" />
          </mxGeometry>
        </mxCell>
        <mxCell id="a4Ap-mkWmLGF6kZdztxk-285" style="edgeStyle=orthogonalEdgeStyle;rounded=0;orthogonalLoop=1;jettySize=auto;html=1;fillColor=#FF0000;" parent="EeVNyMkZ5Xv2RsEspG1U-1" source="a4Ap-mkWmLGF6kZdztxk-262" target="a4Ap-mkWmLGF6kZdztxk-266" edge="1">
          <mxGeometry relative="1" as="geometry">
            <Array as="points">
              <mxPoint x="-180" y="1040" />
              <mxPoint x="-180" y="1040" />
            </Array>
          </mxGeometry>
        </mxCell>
        <mxCell id="a4Ap-mkWmLGF6kZdztxk-288" value="query" style="edgeLabel;html=1;align=center;verticalAlign=middle;resizable=0;points=[];" parent="a4Ap-mkWmLGF6kZdztxk-285" vertex="1" connectable="0">
          <mxGeometry x="-0.0157" relative="1" as="geometry">
            <mxPoint as="offset" />
          </mxGeometry>
        </mxCell>
        <mxCell id="a4Ap-mkWmLGF6kZdztxk-289" value="return" style="html=1;verticalAlign=bottom;endArrow=open;dashed=1;endSize=8;fillColor=#FF0000;" parent="EeVNyMkZ5Xv2RsEspG1U-1" source="a4Ap-mkWmLGF6kZdztxk-279" target="a4Ap-mkWmLGF6kZdztxk-260" edge="1">
          <mxGeometry relative="1" as="geometry">
            <mxPoint x="-460" y="1159.41" as="sourcePoint" />
            <mxPoint x="-540" y="1159.41" as="targetPoint" />
          </mxGeometry>
        </mxCell>
        <mxCell id="a4Ap-mkWmLGF6kZdztxk-290" value="return" style="html=1;verticalAlign=bottom;endArrow=open;dashed=1;endSize=8;fillColor=#FF0000;" parent="EeVNyMkZ5Xv2RsEspG1U-1" source="a4Ap-mkWmLGF6kZdztxk-262" target="a4Ap-mkWmLGF6kZdztxk-279" edge="1">
          <mxGeometry relative="1" as="geometry">
            <mxPoint x="-300" y="1119.9999999999998" as="sourcePoint" />
            <mxPoint x="-390" y="1120" as="targetPoint" />
            <Array as="points">
              <mxPoint x="-330" y="1120" />
            </Array>
          </mxGeometry>
        </mxCell>
        <mxCell id="a4Ap-mkWmLGF6kZdztxk-291" value="return" style="html=1;verticalAlign=bottom;endArrow=open;dashed=1;endSize=8;fillColor=#FF0000;" parent="EeVNyMkZ5Xv2RsEspG1U-1" source="a4Ap-mkWmLGF6kZdztxk-266" target="a4Ap-mkWmLGF6kZdztxk-262" edge="1">
          <mxGeometry relative="1" as="geometry">
            <mxPoint x="-140" y="1079.9999999999998" as="sourcePoint" />
            <mxPoint x="-230" y="1080" as="targetPoint" />
            <Array as="points">
              <mxPoint x="-180" y="1080" />
            </Array>
          </mxGeometry>
        </mxCell>
        <mxCell id="a4Ap-mkWmLGF6kZdztxk-292" style="edgeStyle=orthogonalEdgeStyle;rounded=0;orthogonalLoop=1;jettySize=auto;html=1;fillColor=#FF0000;" parent="EeVNyMkZ5Xv2RsEspG1U-1" source="a4Ap-mkWmLGF6kZdztxk-126" target="a4Ap-mkWmLGF6kZdztxk-253" edge="1">
          <mxGeometry relative="1" as="geometry">
            <Array as="points">
              <mxPoint x="-1230" y="1040" />
              <mxPoint x="-1230" y="1040" />
            </Array>
          </mxGeometry>
        </mxCell>
        <mxCell id="dT0A_XiTAEdOAczXUuaR-1" value="&lt;span style=&quot;font-size: 12px&quot;&gt;Refund Notify&lt;/span&gt;" style="edgeLabel;html=1;align=center;verticalAlign=middle;resizable=0;points=[];" parent="a4Ap-mkWmLGF6kZdztxk-292" vertex="1" connectable="0">
          <mxGeometry x="0.019" y="1" relative="1" as="geometry">
            <mxPoint x="1" as="offset" />
          </mxGeometry>
        </mxCell>
        <mxCell id="a4Ap-mkWmLGF6kZdztxk-297" value="Gateway" style="shape=umlLifeline;perimeter=lifelinePerimeter;whiteSpace=wrap;html=1;container=1;collapsible=0;recursiveResize=0;outlineConnect=0;fillColor=#FFFFFF;" parent="EeVNyMkZ5Xv2RsEspG1U-1" vertex="1">
          <mxGeometry x="-1400" y="-160" width="120" height="760" as="geometry" />
        </mxCell>
        <mxCell id="a4Ap-mkWmLGF6kZdztxk-298" value="" style="html=1;points=[];perimeter=orthogonalPerimeter;fillColor=#B3B3B3;" parent="a4Ap-mkWmLGF6kZdztxk-297" vertex="1">
          <mxGeometry x="55" y="80" width="10" height="640" as="geometry" />
        </mxCell>
        <mxCell id="a4Ap-mkWmLGF6kZdztxk-299" style="edgeStyle=orthogonalEdgeStyle;rounded=0;orthogonalLoop=1;jettySize=auto;html=1;fillColor=#FF0000;" parent="EeVNyMkZ5Xv2RsEspG1U-1" source="a4Ap-mkWmLGF6kZdztxk-298" target="iaEq5DibLvAJ-MCt7vLl-19" edge="1">
          <mxGeometry relative="1" as="geometry">
            <Array as="points">
              <mxPoint x="-1250" y="120" />
              <mxPoint x="-1250" y="120" />
            </Array>
          </mxGeometry>
        </mxCell>
        <mxCell id="dT0A_XiTAEdOAczXUuaR-2" style="edgeStyle=orthogonalEdgeStyle;rounded=0;orthogonalLoop=1;jettySize=auto;html=1;fillColor=#FF0000;" parent="EeVNyMkZ5Xv2RsEspG1U-1" source="a4Ap-mkWmLGF6kZdztxk-253" target="a4Ap-mkWmLGF6kZdztxk-128" edge="1">
          <mxGeometry relative="1" as="geometry">
            <Array as="points">
              <mxPoint x="-1100" y="1080" />
              <mxPoint x="-1100" y="1080" />
            </Array>
          </mxGeometry>
        </mxCell>
        <mxCell id="dT0A_XiTAEdOAczXUuaR-3" value="Refund" style="edgeLabel;html=1;align=center;verticalAlign=middle;resizable=0;points=[];" parent="dT0A_XiTAEdOAczXUuaR-2" vertex="1" connectable="0">
          <mxGeometry relative="1" as="geometry">
            <mxPoint x="-1" as="offset" />
          </mxGeometry>
        </mxCell>
        <mxCell id="dT0A_XiTAEdOAczXUuaR-5" value="Pending" style="html=1;verticalAlign=bottom;endArrow=open;dashed=1;endSize=8;fillColor=#FF0000;" parent="EeVNyMkZ5Xv2RsEspG1U-1" source="a4Ap-mkWmLGF6kZdztxk-128" target="a4Ap-mkWmLGF6kZdztxk-253" edge="1">
          <mxGeometry relative="1" as="geometry">
            <mxPoint x="-1060" y="1180" as="sourcePoint" />
            <mxPoint x="-1140" y="1180" as="targetPoint" />
            <Array as="points">
              <mxPoint x="-1100" y="1240" />
            </Array>
          </mxGeometry>
        </mxCell>
        <mxCell id="dT0A_XiTAEdOAczXUuaR-7" value="Proxy" style="pointerEvents=1;shadow=0;dashed=0;html=1;strokeColor=none;fillColor=#4495D1;labelPosition=center;verticalLabelPosition=bottom;verticalAlign=top;align=center;outlineConnect=0;shape=mxgraph.veeam.2d.proxy;" parent="EeVNyMkZ5Xv2RsEspG1U-1" vertex="1">
          <mxGeometry x="-1000" y="1100" width="40" height="40" as="geometry" />
        </mxCell>
      </root>
    </mxGraphModel>
  </diagram>
  <diagram id="w5kTClqYaTIB0cyUE67b" name="Page-5">
    <mxGraphModel dx="1666" dy="794" grid="1" gridSize="10" guides="1" tooltips="1" connect="1" arrows="1" fold="1" page="1" pageScale="1" pageWidth="827" pageHeight="1169" math="0" shadow="0">
      <root>
        <mxCell id="1oSCqq7E8UGZ24rbZzpE-0" />
        <mxCell id="1oSCqq7E8UGZ24rbZzpE-1" parent="1oSCqq7E8UGZ24rbZzpE-0" />
        <mxCell id="1oSCqq7E8UGZ24rbZzpE-2" value="记忆" style="rounded=0;whiteSpace=wrap;html=1;" vertex="1" parent="1oSCqq7E8UGZ24rbZzpE-1">
          <mxGeometry x="610" y="250" width="120" height="60" as="geometry" />
        </mxCell>
        <mxCell id="TeD9dwT8_m4Hlo3e5cRC-2" value="进化" style="edgeStyle=orthogonalEdgeStyle;rounded=0;orthogonalLoop=1;jettySize=auto;html=1;" edge="1" parent="1oSCqq7E8UGZ24rbZzpE-1" source="TeD9dwT8_m4Hlo3e5cRC-0" target="TeD9dwT8_m4Hlo3e5cRC-1">
          <mxGeometry relative="1" as="geometry" />
        </mxCell>
        <mxCell id="TeD9dwT8_m4Hlo3e5cRC-0" value="祖先" style="rounded=0;whiteSpace=wrap;html=1;" vertex="1" parent="1oSCqq7E8UGZ24rbZzpE-1">
          <mxGeometry x="200" y="120" width="120" height="60" as="geometry" />
        </mxCell>
        <mxCell id="TeD9dwT8_m4Hlo3e5cRC-1" value="分支" style="rounded=0;whiteSpace=wrap;html=1;" vertex="1" parent="1oSCqq7E8UGZ24rbZzpE-1">
          <mxGeometry x="200" y="260" width="120" height="60" as="geometry" />
        </mxCell>
      </root>
    </mxGraphModel>
  </diagram>
</mxfile>
